<?xml version="1.0" encoding="utf-8"?>
<!-- Generator: Adobe Illustrator 25.4.1, SVG Export Plug-In . SVG Version: 6.00 Build 0)  -->
<svg version="1.0" id="Layer_1" xmlns="http://www.w3.org/2000/svg" xmlns:xlink="http://www.w3.org/1999/xlink" x="0px" y="0px"
	 viewBox="0 0 478.6 67.2" enable-background="new 0 0 478.6 67.2" xml:space="preserve">
<path d="M49.2,18.9c0,7.8-4.3,11.8-9,14.2c7.4,2.5,12.6,6.8,12.6,15.5c0,11.4-9.3,17.5-23.4,17.5H0V2.7h28.4
	C41.2,2.7,49.2,9,49.2,18.9z M38.1,20.7c0-5.2-4-8.2-11.1-8.2H11v16.8h15.2C33.3,29.4,38.1,26.6,38.1,20.7z M41.7,47.4
	c0-5.4-4.3-8.6-13-8.6H10.9v17.4h18.5C37,56.2,41.7,53.2,41.7,47.4L41.7,47.4z"/>
<path d="M60.2,66.1V0h11v66.1L60.2,66.1z"/>
<path d="M110.2,66.1v-5.9c-3.3,3.9-8.2,6.9-15.5,6.9c-9.1,0-17-5.2-17-14.8v-0.2c0-10.3,8.2-15.4,19.4-15.4c4.5-0.1,9,0.6,13.2,2
	v-1.2c0-6.6-4.2-10.2-11.8-10.2c-4.7,0-9.4,1-13.7,3l-3-8.8c5.7-2.7,11.9-4.1,18.2-4c14.1,0,21,7.4,21,20.2v28.3L110.2,66.1z
	 M110.5,45.8c-3.5-1.3-7.2-1.9-11-1.9c-6.9,0-11,2.8-11,7.7v0.2c0,4.5,4.1,7,9.2,7c7.2,0,12.7-4.1,12.7-10.1L110.5,45.8z"/>
<path d="M151.7,67.2c-13.5,0.2-24.6-10.6-24.7-24.1c0-0.2,0-0.4,0-0.7c0-13.7,10.5-25.1,24.8-25.1c9.1,0,14.7,3.3,19.1,8.2l-6.8,7.3
	c-3.3-3.5-6.9-6-12.4-6c-8,0-13.8,6.9-13.8,15.3c0,8.6,5.9,15.5,14.3,15.5c5.2,0,9-2.5,12.4-6l6.6,6.5
	C166.5,63.5,161,67.2,151.7,67.2z"/>
<path d="M221.4,66.1h-12.7l-14.4-20.7l-6.7,7v13.7h-11V0h11v39.5l19.8-21.2h13.3l-19,19.5L221.4,66.1z"/>
<path d="M254.5,67.1c-7.9,0-12.9-4-16.2-8.4v7.4h-10.9V0h11v26.2c3.5-5,8.5-9,16.2-9c11.3,0,22.3,9,22.3,24.9S265.9,67.1,254.5,67.1
	z M252,26.8c-7.4,0-14,6.1-14,15.4s6.5,15.4,14,15.4s13.7-5.9,13.7-15.4S259.4,26.8,252,26.8L252,26.8z"/>
<path d="M306.2,67.2c-14.6,0-25.3-11.1-25.3-24.8s10.9-25.1,25.5-25.1s25.4,11.1,25.4,24.9S320.9,67.2,306.2,67.2z M306.2,26.9
	c-8.8,0-14.4,6.9-14.4,15.3s6,15.5,14.6,15.5c8.9,0,14.5-6.9,14.5-15.3S314.8,26.9,306.2,26.9L306.2,26.9z"/>
<path d="M367.7,66.1v-5.9c-3.2,3.9-8.2,6.9-15.5,6.9c-9,0-17-5.2-17-14.8v-0.2c0-10.3,8.2-15.4,19.4-15.4c4.5-0.1,9,0.6,13.2,2v-1.2
	c0-6.6-4.2-10.2-11.8-10.2c-4.7,0-9.4,1-13.7,3l-3-8.8c5.7-2.7,11.9-4.1,18.2-4c14.1,0,21,7.4,21,20.2v28.3L367.7,66.1z M367.9,45.8
	c-3.5-1.3-7.2-1.9-11-1.9c-6.9,0-11,2.8-11,7.7v0.2c0,4.5,4.1,7,9.2,7c7.2,0,12.7-4.1,12.7-10.1L367.9,45.8z"/>
<path d="M398,66.1H387V18.3H398V29c3-7.2,8.5-12,16.9-11.7V29h-0.6c-9.6,0-16.3,6.2-16.3,18.9V66.1z"/>
<path d="M454.6,66.1v-8c-3.5,5-8.5,9-16.3,9c-11.2,0-22.2-9-22.2-24.9s10.8-24.9,22.2-24.9c7.9,0,12.8,4,16.3,8.4V0h11v66.1
	L454.6,66.1z M440.9,26.8c-7.5,0-13.8,5.8-13.8,15.4c0,9.4,6.3,15.4,13.8,15.4s13.8-6.1,13.8-15.4S448.2,26.8,440.9,26.8z"/>
<path d="M478.6,3.9c0,2.1-1.7,3.9-3.9,3.9c-2.1,0-3.9-1.7-3.9-3.9c0-2.1,1.7-3.9,3.9-3.9l0,0C476.9,0,478.6,1.7,478.6,3.9z
	 M471.6,3.9c0,1.7,1.4,3.1,3.1,3.1c1.7,0,3.1-1.4,3.1-3.1c0-1.7-1.4-3.1-3.1-3.1C473,0.8,471.7,2.2,471.6,3.9L471.6,3.9z M475,1.9
	c1,0,1.5,0.4,1.5,1.2c0,0.4-0.1,0.7-0.5,0.9c0.3,0.2,0.3,0.3,0.4,1s0,0.8,0.3,0.9h-1.1c-0.1-0.2-0.2-0.5-0.1-0.7
	c0-0.8,0-0.9-0.6-0.9h-0.7v1.6h-1V1.8L475,1.9z M474.1,3.6h0.7c0.5,0,0.7-0.1,0.7-0.4s-0.1-0.5-0.7-0.5h-0.7L474.1,3.6z"/>
</svg>
